<svg id="Layer_1" data-name="Layer 1" xmlns="http://www.w3.org/2000/svg" viewBox="0 0 753.78 229.51"><defs><style>.cls-1{fill:#58f9b4;}.cls-2{fill:#2fa4e5;}.cls-3{fill:#56dafb;}.cls-4{fill:#9857c3;}.cls-5{fill:#4e41ba;}.cls-6{fill:#f8306a;}.cls-7{fill:#dc2f6f;}</style></defs><title>Artboard 1</title><path class="cls-1" d="M129.8,37v109.9L98.35,178.36a45.12,45.12,0,0,1-63.91-.1h0a45.39,45.39,0,0,1,.1-64.11l63.9-63.91A44.9,44.9,0,0,1,129.79,37S129.8,37,129.8,37Z"/><path class="cls-2" d="M193.8,81.61v109.9a45,45,0,0,1-32.63-13.24L129.8,146.91V37a45,45,0,0,1,32.63,13.23Z"/><path class="cls-3" d="M289.17,114.26l-64,64a44.91,44.91,0,0,1-31.36,13.24V81.61l31.36-31.37a45.25,45.25,0,0,1,64,0l0,0A45.23,45.23,0,0,1,289.17,114.26Z"/><path class="cls-4" d="M408,37.3V146.59h0l-31.66,31.68a45.25,45.25,0,0,1-64,0v0a45.23,45.23,0,0,1,0-64L376,50.56A45,45,0,0,1,408,37.3Z"/><path class="cls-5" d="M503.64,178.25v0a45.25,45.25,0,0,1-64,0L408,146.59V37.3a45.07,45.07,0,0,1,32,13.26l32,32,31.65,31.68A45.23,45.23,0,0,1,503.64,178.25Z"/><path class="cls-6" d="M620.31,82V191.22a45.18,45.18,0,0,1-32-13.26l-63.67-63.7a45.27,45.27,0,0,1,0-64h0a45.22,45.22,0,0,1,64,0Z"/><path class="cls-7" d="M716,114.26l-31.68,31.68-32,32a45.1,45.1,0,0,1-32,13.29V82L652,50.27a45.26,45.26,0,0,1,64,64Z"/></svg>